<?xml version="1.0" standalone="no"?><!DOCTYPE svg PUBLIC "-//W3C//DTD SVG 1.1//EN" "http://www.w3.org/Graphics/SVG/1.1/DTD/svg11.dtd"><svg t="1665477087240" class="icon" viewBox="0 0 1024 1024" version="1.1" xmlns="http://www.w3.org/2000/svg" p-id="5128" xmlns:xlink="http://www.w3.org/1999/xlink" width="128" height="128"><path d="M960.8 515c-0.2-11.7-5.5-23.2-15.4-30.9-17.5-13.7-42.8-10.7-56.6 6.8-5.7 7.3-8.5 15.8-8.6 24.4h-0.4c-0.6 78.3-26.1 157-78 223.3-124.9 159.2-356 187.1-515.2 62.3S99.4 445 224.3 285.8c124.9-159.2 356-187.1 515.2-62.3 29.6 23.2 54.6 50.1 75 79.5H741c-22.4 0-40.7 18.3-40.7 40.7v3c0 22.4 18.3 40.7 40.7 40.7h177.3c22.4 0 40.7-18.3 40.7-40.7V169.3c0-22.4-18.3-40.7-40.7-40.7h-3c-22.4 0-40.7 18.3-40.7 40.7v78.5c-24.1-32.9-52.6-62.4-85.2-88-47.6-37.3-101-64.2-158.9-79.9C574.6 64.8 517 60.7 459.3 67.6c-57.7 7-112.7 24.7-163.3 52.8-52.5 29-98 67.9-135.3 115.4-37.3 47.6-64.2 101-79.9 158.9-15.2 55.9-19.3 113.5-12.3 171.2 7 57.7 24.7 112.7 52.8 163.3 29 52.5 67.9 98 115.4 135.3 47.6 37.3 101 64.2 158.9 79.9 55.9 15.2 113.5 19.3 171.2 12.3 57.7-7 112.7-24.7 163.3-52.8 52.5-29 98-67.9 135.3-115.4 37.3-47.6 64.2-101 79.9-158.9 10.2-37.5 15.4-75.9 15.5-114.6z" p-id="5129" fill="#FFAD4E"></path></svg>