<?xml version="1.0" encoding="UTF-8"?>
<svg width="30px" height="30px" viewBox="0 0 30 30" version="1.1" xmlns="http://www.w3.org/2000/svg" xmlns:xlink="http://www.w3.org/1999/xlink">
    <title>z/标题icon/等待</title>
    <g id="20210603-增加核酸预录" stroke="none" stroke-width="1" fill="none" fill-rule="evenodd">
        <g id="绿码+48小时" transform="translate(-112.000000, -904.000000)" fill="#FFFFFF">
            <g id="编组-11" transform="translate(40.000000, 874.000000)">
                <g id="编组-13" transform="translate(72.000000, 24.000000)">
                    <g id="Group" transform="translate(0.000000, 6.000000)">
                        <path d="M15,0 C23.2842712,0 30,6.71572875 30,15 C30,23.2842712 23.2842712,30 15,30 C6.71572875,30 0,23.2842712 0,15 C0,6.71572875 6.71572875,0 15,0 Z M22.6603235,11.2203884 C22.0094496,10.5695146 20.9541747,10.5695146 20.3033009,11.2203884 L20.3033009,11.2203884 L13.821253,17.7014935 L10.2859548,14.1666667 C9.63508097,13.5157928 8.57980601,13.5157928 7.92893219,14.1666667 C7.27805837,14.8175405 7.27805837,15.8728155 7.92893219,16.5236893 L7.92893219,16.5236893 L12.6429774,21.2377345 L12.7489897,21.3350951 C13.4038126,21.8868053 14.3833827,21.8543518 15,21.2377345 L15,21.2377345 L22.6603235,13.577411 C23.3111973,12.9265372 23.3111973,11.8712622 22.6603235,11.2203884 Z" id="形状结合"></path>
                    </g>
                </g>
            </g>
        </g>
    </g>
</svg>