<svg xmlns="http://www.w3.org/2000/svg" xmlns:xlink="http://www.w3.org/1999/xlink" viewBox="0 0 36 36" class="design-iconfont">
  <defs>
    <linearGradient x1="50%" y1="0%" x2="50%" y2="97.6230828%" id="h6960q2yua">
      <stop stop-color="#3888FF" offset="0%"/>
      <stop stop-color="#3A8AFF" stop-opacity=".96450277" offset="50.2108181%"/>
      <stop stop-color="#EEF7FF" offset="100%"/>
    </linearGradient>
    <path d="M620.001,0 C636.569542,0 650.001,14.1153064 650.001,31.5274193 L650.001002,144 C650.000668,144 650.000334,144 650,144 C641.715729,144 635,150.715729 635,159 C635,167.284271 641.715729,174 650,174 L650,174 L650.001,804 L0,804 L0,174 L0,174 C8.28427125,174 15,167.284271 15,159 C15,150.715729 8.28427125,144 0,144 L0,31.5274193 C0,14.1153064 13.4324575,0 30.001,0 L620.001,0 Z" id="8hxpd7wz9b"/>
  </defs>
  <g fill="none" fill-rule="evenodd">
    <path fill="#FFF" d="M0 0H750V1624H0z" transform="translate(-642 -663)"/>
    <path fill="url(#h6960q2yua)" d="M0 372H750V1172H0z" transform="translate(-642 -663)"/>
    <g transform="translate(-592 -291)">
      <path d="M620.001,0 C636.569542,0 650.001,14.1153064 650.001,31.5274193 L650.001002,144 C650.000668,144 650.000334,144 650,144 C641.715729,144 635,150.715729 635,159 C635,167.284271 641.715729,174 650,174 L650,174 L650.001,804 L0,804 L0,174 L0,174 C8.28427125,174 15,167.284271 15,159 C15,150.715729 8.28427125,144 0,144 L0,31.5274193 C0,14.1153064 13.4324575,0 30.001,0 L620.001,0 Z" fill="#FFF"/>
      <mask id="f3psefiysc" fill="#fff">
        <use xlink:href="#8hxpd7wz9b"/>
      </mask>
      <use fill="#FFF" xlink:href="#8hxpd7wz9b"/>
      <g mask="url(#f3psefiysc)" fill="#3888FF">
        <path d="M8,0 L80,0 L80,0 L80,188 L8,188 C3.581722,188 5.41083001e-16,184.418278 0,180 L0,8 C-5.41083001e-16,3.581722 3.581722,8.11624501e-16 8,0 Z" opacity=".1" transform="translate(570 267)"/>
        <path d="M40 51L29.4198655 56.5623059 31.4404914 44.7811529 22.8809827 36.4376941 34.7099327 34.7188471 40 24 45.2900673 34.7188471 57.1190173 36.4376941 48.5595086 44.7811529 50.5801345 56.5623059z" transform="translate(570 267)"/>
      </g>
    </g>
  </g>
</svg>
