<?xml version="1.0" encoding="UTF-8"?>
<svg width="51px" height="50px" viewBox="0 0 51 50" version="1.1" xmlns="http://www.w3.org/2000/svg" xmlns:xlink="http://www.w3.org/1999/xlink">
    <title>核酸icon</title>
    <g id="页面-1" stroke="none" stroke-width="1" fill="none" fill-rule="evenodd">
        <g id="画板" transform="translate(-232.000000, -843.000000)" fill-rule="nonzero">
            <g id="编组" transform="translate(232.800000, 843.000001)">
                <rect id="矩形" fill="#000000" opacity="0" x="0" y="2.76909557e-06" width="50" height="49.9999972"></rect>
                <path d="M24.9994322,4.53001692 C25.394657,4.53001692 25.7864131,4.60374931 26.1545851,4.74745744 L40.7831231,10.466596 C41.9994982,10.94186 42.8001105,12.1142366 42.8001105,13.4201631 L42.8001105,26.2049859 C42.7740629,34.4790506 30.9824443,42.3556068 26.5656835,45.0169882 C25.5541014,45.624598 24.2887933,45.6202348 23.2814255,45.0056631 C18.8997724,42.3397518 7.26896909,34.4971706 7.19988639,26.3193687 L7.19988639,13.4201631 C7.19988639,12.1145189 7.99981153,10.9422235 9.21574136,10.466596 L23.847677,4.74745744 C24.214748,4.60403656 24.6053375,4.53001692 24.9994322,4.53001692 M24.9994322,3.08242012e-06 C24.0398773,-0.000750153741 23.0887097,0.178650175 22.1953554,0.528884918 L7.56681733,6.24802352 C4.61361117,7.40259592 2.66987544,10.2492857 2.66987544,13.4201631 L2.66987544,26.3567413 C2.71291055,31.1438302 5.34484692,36.0724819 10.494337,40.9966036 C14.2961487,44.6375998 18.6642118,47.4926391 20.9303499,48.8708948 C23.3782478,50.3621043 26.4517924,50.3703947 28.9076992,48.8924124 C31.1976198,47.5118916 35.6121155,44.6511898 39.4535649,40.9920736 C44.6630775,36.0283143 47.3142665,31.0566275 47.3301215,26.2140459 L47.3301215,13.4167656 C47.3301215,10.2458882 45.3863858,7.39919841 42.4331796,6.24462601 L27.803509,0.528884918 C26.9101846,0.178546433 25.9589972,-0.000857637377 24.9994322,3.08242012e-06 Z" id="形状" fill="#1F90FB"></path>
                <path d="M31.7944488,22.3782594 L18.2044157,22.3782594 C17.395128,22.3783782 16.6472644,21.9466966 16.2425863,21.2458527 C15.8379081,20.5450088 15.8379081,19.6814992 16.2425863,18.9806553 C16.6472644,18.2798114 17.395128,17.8481298 18.2044157,17.8482486 L31.7944488,17.8482486 C33.0452469,17.8484323 34.0591217,18.8624559 34.0591217,20.113254 C34.0591217,21.364052 33.0452469,22.3780757 31.7944488,22.3782594 L31.7944488,22.3782594 Z" id="路径" fill="#1F90FB"></path>
                <path d="M24.9994322,29.1732755 C24.3987154,29.1732755 23.8226024,28.9346417 23.3978315,28.5098708 C22.9730605,28.0850999 22.7344267,27.5089869 22.7344267,26.9082701 L22.7344267,13.3182378 C22.7344267,12.0673099 23.7485042,11.0532324 24.9994322,11.0532324 C26.2503602,11.0532324 27.2644377,12.0673099 27.2644377,13.3182378 L27.2644377,26.9082701 C27.2644377,28.1591981 26.2503602,29.1732755 24.9994322,29.1732755 L24.9994322,29.1732755 Z" id="路径" fill="#1F90FB"></path>
            </g>
        </g>
    </g>
</svg>