<?xml version="1.0" standalone="no"?><!DOCTYPE svg PUBLIC "-//W3C//DTD SVG 1.1//EN" "http://www.w3.org/Graphics/SVG/1.1/DTD/svg11.dtd"><svg t="1632798517500" class="icon" viewBox="0 0 1024 1024" version="1.1" xmlns="http://www.w3.org/2000/svg" p-id="2419" xmlns:xlink="http://www.w3.org/1999/xlink" width="200" height="200"><defs><style type="text/css"></style></defs><path d="M469.333333 681.386667c-36.053333-2.432-71.253333-8.533333-104.96-17.92l-69.802666 149.674666a42.368 42.368 0 0 1-56.533334 20.266667 42.666667 42.666667 0 0 1-20.821333-56.32l66.986667-143.658667a451.712 451.712 0 0 1-148.906667-112.682666 388.693333 388.693333 0 0 1-70.570667-119.338667 42.666667 42.666667 0 1 1 80.128-29.354667 303.445333 303.445333 0 0 0 55.210667 93.098667C270.634667 547.413333 383.018667 597.333333 505.728 597.333333c122.752 0 235.136-49.962667 305.706667-132.181333a303.445333 303.445333 0 0 0 55.210666-93.098667 42.666667 42.666667 0 0 1 80.128 29.354667 388.693333 388.693333 0 0 1-70.570666 119.338667 423.68 423.68 0 0 1-18.773334 20.48l104.362667 104.362666a42.666667 42.666667 0 0 1-0.298667 60.032 42.368 42.368 0 0 1-60.032 0.298667l-109.653333-109.653333c-20.48 14.08-42.24 26.581333-65.024 37.418666l66.901333 143.36a42.666667 42.666667 0 0 1-20.821333 56.362667 42.368 42.368 0 0 1-56.533333-20.266667l-69.717334-149.546666a520.533333 520.533333 0 0 1-91.946666 16.810666v130.645334A42.666667 42.666667 0 0 1 512 853.333333c-23.722667 0-42.666667-18.944-42.666667-42.24v-129.706666z" fill="#ffffff" p-id="2420"></path><path d="M176.128 524.373333a42.368 42.368 0 0 1 60.032 0.256 42.666667 42.666667 0 0 1 0.298667 60.074667l-121.216 121.216a42.368 42.368 0 0 1-60.074667-0.298667 42.666667 42.666667 0 0 1-0.298667-60.032l121.258667-121.258666z" fill="#ffffff" p-id="2421"></path></svg>