<?xml version="1.0" encoding="UTF-8"?>
<svg width="57px" height="56px" viewBox="0 0 57 56" version="1.1" xmlns="http://www.w3.org/2000/svg" xmlns:xlink="http://www.w3.org/1999/xlink">
    <!-- Generator: Sketch 63 (92445) - https://sketch.com -->
    <title>通过</title>
    <desc>Created with Sketch.</desc>
    <g id="页面-1" stroke="none" stroke-width="1" fill="none" fill-rule="evenodd">
        <g id="画板" transform="translate(-202.000000, -61.000000)" fill="#4FD965" fill-rule="nonzero">
            <path d="M230.5,117 L230.5,117 C215.036016,117 202.5,104.463984 202.5,89 C202.5,73.5360156 215.036016,61 230.5,61 L230.5,61 C245.963984,61 258.5,73.5360156 258.5,89 C258.5,104.463984 245.963984,117 230.5,117 L230.5,117 Z M226.035555,98.2711172 L226.035555,98.2711173 C226.992149,99.1345891 228.467601,99.059104 229.331078,98.1025097 C229.331831,98.1016757 229.332583,98.1008412 229.333335,98.1000062 L243.379984,82.4977718 L243.379984,82.4977718 C244.222472,81.5226444 244.114946,80.0491772 243.139815,79.206689 C242.193465,78.3890671 240.770764,78.4629554 239.914204,79.3742159 L227.423087,93.2497472 L221.356438,87.7835237 L221.356438,87.7835237 C220.399391,86.9201175 218.923621,86.9960292 218.060215,87.953079 C217.196809,88.9101267 217.27272,90.3858962 218.22977,91.2493025 L226.032419,98.2773025 L226.035555,98.2711172 Z" id="通过"></path>
        </g>
    </g>
</svg>