<?xml version="1.0" standalone="no"?><!DOCTYPE svg PUBLIC "-//W3C//DTD SVG 1.1//EN" "http://www.w3.org/Graphics/SVG/1.1/DTD/svg11.dtd"><svg class="icon" width="200px" height="200.00px" viewBox="0 0 1024 1024" version="1.1" xmlns="http://www.w3.org/2000/svg"><path fill="#333333" d="M938.1 577.9c-16.1-55.7-51.6-106.1-100.8-147.2l74.9-100.5c7.9-10.6 5.7-25.7-4.9-33.6-10.6-7.9-25.7-5.7-33.6 4.9l-75 100.7c-42.8-28-92.9-49.9-147.8-63.8L687 234c4.3-12.5-2.3-26.2-14.8-30.5-12.5-4.3-26.2 2.3-30.5 14.8l-38.1 110.2c-29.5-4.8-60.1-7.4-91.4-7.5-28.6 0.1-56.6 2.3-83.8 6.3l-37.9-109.4c-4.3-12.5-18-19.2-30.5-14.8-12.5 4.3-19.2 18-14.8 30.5l35.7 103c-54.9 13.3-105.3 34.5-148.5 61.8l-72.1-96.6c-7.9-10.6-23-12.8-33.6-4.9-10.6 7.9-12.8 23-4.9 33.6l71.5 95.8c-52.2 42.1-89.8 94.4-106.7 152.2l1.4 0.4-1 0.3c42.9 146.6 219.3 247.4 426 247.9 207.1-0.4 383.9-101.7 426.3-248.8l-1.2-0.4zM513.1 779c-185.4 0.4-337.2-90.1-376-200.7C176.6 466.7 328.3 368.5 512.2 369c185.3-0.5 338.1 98.4 376.4 210.9-39.8 109.9-191 199.5-375.5 199.1z m1.9-342.1c-77.4 0-140.1 62.7-140.1 140.1 0 77.4 62.7 140.1 140.1 140.1 77.4 0 140.1-62.7 140.1-140.1 0-77.4-62.7-140.1-140.1-140.1z m0 232.2c-50.8-0.1-92-41.2-92.1-92.1 0.1-50.8 41.2-92 92.1-92.1 50.8 0.1 92 41.2 92.1 92.1-0.1 50.8-41.3 92-92.1 92.1z"  /></svg>