<?xml version="1.0" standalone="no"?><!DOCTYPE svg PUBLIC "-//W3C//DTD SVG 1.1//EN" "http://www.w3.org/Graphics/SVG/1.1/DTD/svg11.dtd"><svg class="icon" width="200px" height="200.00px" viewBox="0 0 1024 1024" version="1.1" xmlns="http://www.w3.org/2000/svg"><path fill="#333333" d="M950.1 339.7c3.7-12.7-3.7-26-16.4-29.7-12.7-3.7-26 3.7-29.7 16.4-32.1 116.8-194 223-391.7 222.4-197.3 0.7-359.8-106-392.3-222.5-3.7-12.7-17-20-29.8-16.3-12.7 3.7-20 17-16.3 29.8 17.4 58 56.4 110.2 110.3 152.3L111.1 587c-8.1 10.5-6.1 25.6 4.4 33.7 10.5 8.1 25.6 6.1 33.7-4.4l74.6-97c44.8 27.5 97 48.8 153.9 62L341 684c-4.5 12.5 2.1 26.2 14.5 30.7 12.5 4.5 26.2-2.1 30.7-14.5l39.2-109.7c28.1 4.1 57.2 6.3 86.8 6.4 32.4-0.1 64.1-2.7 94.7-7.6l39.4 110.4c4.4 12.5 18.2 19 30.7 14.6s19-18.2 14.6-30.7l-37-103.9c56.9-14 108.8-36 153-64.3l77.8 101.3c8.1 10.5 23.1 12.5 33.7 4.4 10.5-8.1 12.5-23.1 4.4-33.7l-76.9-100.1c50.4-41.2 86.9-91.7 103.5-147.6z"  /></svg>